<mxfile>
    <diagram id="h_wZMnJX5ABysUPrkZ80" name="第 1 页">
        <mxGraphModel dx="1998" dy="2675" grid="1" gridSize="10" guides="1" tooltips="1" connect="1" arrows="1" fold="1" page="1" pageScale="1" pageWidth="827" pageHeight="1169" math="0" shadow="0">
            <root>
                <mxCell id="0"/>
                <mxCell id="1" parent="0"/>
                <mxCell id="7rrcXuyhzCld1oj75WC8-25" value="" style="group;rounded=0;imageAlign=left;imageAspect=1;imageVerticalAlign=middle;verticalAlign=top;" parent="1" vertex="1" connectable="0">
                    <mxGeometry x="450" y="-300" width="340" height="880" as="geometry"/>
                </mxCell>
                <mxCell id="7rrcXuyhzCld1oj75WC8-1" value="YAML" style="rounded=1;whiteSpace=wrap;html=1;verticalAlign=top;fontSize=30;align=center;horizontal=1;labelBorderColor=none;labelBackgroundColor=none;spacingBottom=0;spacingTop=10;" parent="7rrcXuyhzCld1oj75WC8-25" vertex="1">
                    <mxGeometry x="8.096435438544596" y="-15.820224719101123" width="331.9035645614554" height="895.8202247191011" as="geometry"/>
                </mxCell>
                <mxCell id="7rrcXuyhzCld1oj75WC8-4" value="部署配置" style="rounded=1;whiteSpace=wrap;html=1;fontSize=31;fillColor=#dae8fc;strokeColor=#6c8ebf;labelPosition=center;verticalLabelPosition=middle;align=center;verticalAlign=middle;sketch=0;glass=0;shadow=1;" parent="7rrcXuyhzCld1oj75WC8-25" vertex="1">
                    <mxGeometry x="50.291117275911695" y="113.00160513643661" width="250.95147564402717" height="142.38202247191012" as="geometry"/>
                </mxCell>
                <mxCell id="7rrcXuyhzCld1oj75WC8-5" value="容器配置" style="rounded=1;whiteSpace=wrap;html=1;fontSize=31;fillColor=#d5e8d4;strokeColor=#82b366;labelPosition=center;verticalLabelPosition=middle;align=center;verticalAlign=middle;sketch=0;glass=0;shadow=1;" parent="7rrcXuyhzCld1oj75WC8-25" vertex="1">
                    <mxGeometry x="39.99855494749298" y="400.00471910112356" width="250.94926785978407" height="152.2696629213483" as="geometry"/>
                </mxCell>
                <mxCell id="7rrcXuyhzCld1oj75WC8-6" value="服务配置" style="rounded=1;whiteSpace=wrap;html=1;fontSize=31;fillColor=#ffe6cc;strokeColor=#d79b00;labelPosition=center;verticalLabelPosition=middle;align=center;verticalAlign=middle;sketch=0;glass=0;shadow=1;" parent="7rrcXuyhzCld1oj75WC8-25" vertex="1">
                    <mxGeometry x="40.00125335045688" y="689.997415730337" width="250.95147564402717" height="142.38202247191012" as="geometry"/>
                </mxCell>
                <mxCell id="7rrcXuyhzCld1oj75WC8-26" value="" style="group" parent="1" vertex="1" connectable="0">
                    <mxGeometry x="1140" y="-390" width="430" height="1150" as="geometry"/>
                </mxCell>
                <mxCell id="7rrcXuyhzCld1oj75WC8-8" value="&lt;div style=&quot;color: rgb(212, 212, 212); background-color: rgb(30, 30, 30); font-family: &amp;quot;文泉驿等宽正黑,noto sans mono cjk sc&amp;quot;, consolas, &amp;quot;courier new&amp;quot;, monospace; font-weight: normal; font-size: 20px; line-height: 27px;&quot;&gt;&lt;div&gt;&lt;span style=&quot;color: #569cd6&quot;&gt;apiVersion&lt;/span&gt;&lt;span style=&quot;color: #d4d4d4&quot;&gt;:&amp;nbsp;&lt;/span&gt;&lt;span style=&quot;color: #ce9178&quot;&gt;apps/v1&lt;/span&gt;&lt;/div&gt;&lt;div&gt;&lt;span style=&quot;color: #569cd6&quot;&gt;kind&lt;/span&gt;&lt;span style=&quot;color: #d4d4d4&quot;&gt;:&amp;nbsp;&lt;/span&gt;&lt;span style=&quot;color: #ce9178&quot;&gt;Deployment&lt;/span&gt;&lt;/div&gt;&lt;div&gt;&lt;span style=&quot;color: #569cd6&quot;&gt;metadata&lt;/span&gt;&lt;span style=&quot;color: #d4d4d4&quot;&gt;:&lt;/span&gt;&lt;/div&gt;&lt;div&gt;&lt;span style=&quot;color: #d4d4d4&quot;&gt;&amp;nbsp;&amp;nbsp;&lt;/span&gt;&lt;span style=&quot;color: #569cd6&quot;&gt;name&lt;/span&gt;&lt;span style=&quot;color: #d4d4d4&quot;&gt;:&amp;nbsp;&lt;/span&gt;&lt;span style=&quot;color: #ce9178&quot;&gt;speedtest-deployment&lt;/span&gt;&lt;/div&gt;&lt;div&gt;&lt;span style=&quot;color: #d4d4d4&quot;&gt;&amp;nbsp;&amp;nbsp;&lt;/span&gt;&lt;span style=&quot;color: #569cd6&quot;&gt;labels&lt;/span&gt;&lt;span style=&quot;color: #d4d4d4&quot;&gt;:&lt;/span&gt;&lt;/div&gt;&lt;div&gt;&lt;span style=&quot;color: #d4d4d4&quot;&gt;&amp;nbsp;&amp;nbsp;&amp;nbsp;&amp;nbsp;&lt;/span&gt;&lt;span style=&quot;color: #569cd6&quot;&gt;app&lt;/span&gt;&lt;span style=&quot;color: #d4d4d4&quot;&gt;:&amp;nbsp;&lt;/span&gt;&lt;span style=&quot;color: #ce9178&quot;&gt;speedtest&lt;/span&gt;&lt;/div&gt;&lt;div&gt;&lt;span style=&quot;color: #569cd6&quot;&gt;spec&lt;/span&gt;&lt;span style=&quot;color: #d4d4d4&quot;&gt;:&lt;/span&gt;&lt;/div&gt;&lt;div&gt;&lt;span style=&quot;color: #d4d4d4&quot;&gt;&amp;nbsp;&amp;nbsp;&lt;/span&gt;&lt;span style=&quot;color: #569cd6&quot;&gt;replicas&lt;/span&gt;&lt;span style=&quot;color: #d4d4d4&quot;&gt;:&amp;nbsp;&lt;/span&gt;&lt;span style=&quot;color: #b5cea8&quot;&gt;1&lt;/span&gt;&lt;/div&gt;&lt;div&gt;&lt;span style=&quot;color: #d4d4d4&quot;&gt;&amp;nbsp;&amp;nbsp;&lt;/span&gt;&lt;span style=&quot;color: #569cd6&quot;&gt;selector&lt;/span&gt;&lt;span style=&quot;color: #d4d4d4&quot;&gt;:&lt;/span&gt;&lt;/div&gt;&lt;div&gt;&lt;span style=&quot;color: #d4d4d4&quot;&gt;&amp;nbsp;&amp;nbsp;&amp;nbsp;&amp;nbsp;&lt;/span&gt;&lt;span style=&quot;color: #569cd6&quot;&gt;matchLabels&lt;/span&gt;&lt;span style=&quot;color: #d4d4d4&quot;&gt;:&lt;/span&gt;&lt;/div&gt;&lt;div&gt;&lt;span style=&quot;color: #d4d4d4&quot;&gt;&amp;nbsp;&amp;nbsp;&amp;nbsp;&amp;nbsp;&amp;nbsp;&amp;nbsp;&lt;/span&gt;&lt;span style=&quot;color: #569cd6&quot;&gt;app&lt;/span&gt;&lt;span style=&quot;color: #d4d4d4&quot;&gt;:&amp;nbsp;&lt;/span&gt;&lt;span style=&quot;color: #ce9178&quot;&gt;speedtest&lt;/span&gt;&lt;/div&gt;&lt;div&gt;&lt;span style=&quot;color: #d4d4d4&quot;&gt;&amp;nbsp;&amp;nbsp;&lt;/span&gt;&lt;span style=&quot;color: #569cd6&quot;&gt;template&lt;/span&gt;&lt;span style=&quot;color: #d4d4d4&quot;&gt;:&lt;/span&gt;&lt;/div&gt;&lt;div&gt;&lt;span style=&quot;color: #d4d4d4&quot;&gt;&amp;nbsp;&amp;nbsp;&amp;nbsp;&amp;nbsp;&lt;/span&gt;&lt;span style=&quot;color: #569cd6&quot;&gt;metadata&lt;/span&gt;&lt;span style=&quot;color: #d4d4d4&quot;&gt;:&lt;/span&gt;&lt;/div&gt;&lt;div&gt;&lt;span style=&quot;color: #d4d4d4&quot;&gt;&amp;nbsp;&amp;nbsp;&amp;nbsp;&amp;nbsp;&amp;nbsp;&amp;nbsp;&lt;/span&gt;&lt;span style=&quot;color: #569cd6&quot;&gt;labels&lt;/span&gt;&lt;span style=&quot;color: #d4d4d4&quot;&gt;:&lt;/span&gt;&lt;/div&gt;&lt;div&gt;&lt;span style=&quot;color: #d4d4d4&quot;&gt;&amp;nbsp;&amp;nbsp;&amp;nbsp;&amp;nbsp;&amp;nbsp;&amp;nbsp;&amp;nbsp;&amp;nbsp;&lt;/span&gt;&lt;span style=&quot;color: #569cd6&quot;&gt;app&lt;/span&gt;&lt;span style=&quot;color: #d4d4d4&quot;&gt;:&amp;nbsp;&lt;/span&gt;&lt;span style=&quot;color: #ce9178&quot;&gt;speedtest&lt;/span&gt;&lt;/div&gt;&lt;div&gt;&lt;span style=&quot;color: #d4d4d4&quot;&gt;&amp;nbsp;&amp;nbsp;&amp;nbsp;&amp;nbsp;&lt;/span&gt;&lt;span style=&quot;color: #569cd6&quot;&gt;spec&lt;/span&gt;&lt;span style=&quot;color: #d4d4d4&quot;&gt;:&lt;/span&gt;&lt;/div&gt;&lt;div&gt;&lt;span style=&quot;color: #d4d4d4&quot;&gt;&amp;nbsp;&amp;nbsp;&amp;nbsp;&amp;nbsp;&amp;nbsp;&amp;nbsp;&lt;/span&gt;&lt;span style=&quot;color: #569cd6&quot;&gt;containers&lt;/span&gt;&lt;span style=&quot;color: #d4d4d4&quot;&gt;:&lt;/span&gt;&lt;/div&gt;&lt;div&gt;&lt;span style=&quot;color: #d4d4d4&quot;&gt;&amp;nbsp;&amp;nbsp;&amp;nbsp;&amp;nbsp;&amp;nbsp;&amp;nbsp;&amp;nbsp;&amp;nbsp;-&amp;nbsp;&lt;/span&gt;&lt;span style=&quot;color: #569cd6&quot;&gt;name&lt;/span&gt;&lt;span style=&quot;color: #d4d4d4&quot;&gt;:&amp;nbsp;&lt;/span&gt;&lt;span style=&quot;color: #ce9178&quot;&gt;speedtest&lt;/span&gt;&lt;/div&gt;&lt;div&gt;&lt;span style=&quot;color: #d4d4d4&quot;&gt;&amp;nbsp;&amp;nbsp;&amp;nbsp;&amp;nbsp;&amp;nbsp;&amp;nbsp;&amp;nbsp;&amp;nbsp;&amp;nbsp;&amp;nbsp;&lt;/span&gt;&lt;span style=&quot;color: #569cd6&quot;&gt;image&lt;/span&gt;&lt;span style=&quot;color: #d4d4d4&quot;&gt;:&amp;nbsp;&lt;/span&gt;&lt;span style=&quot;color: #ce9178&quot;&gt;adolfintel/speedtest&lt;/span&gt;&lt;/div&gt;&lt;div&gt;&lt;span style=&quot;color: #d4d4d4&quot;&gt;&amp;nbsp;&amp;nbsp;&amp;nbsp;&amp;nbsp;&amp;nbsp;&amp;nbsp;&amp;nbsp;&amp;nbsp;&amp;nbsp;&amp;nbsp;&lt;/span&gt;&lt;span style=&quot;color: #569cd6&quot;&gt;volumeMounts&lt;/span&gt;&lt;span style=&quot;color: #d4d4d4&quot;&gt;:&lt;/span&gt;&lt;/div&gt;&lt;div&gt;&lt;span style=&quot;color: #d4d4d4&quot;&gt;&amp;nbsp;&amp;nbsp;&amp;nbsp;&amp;nbsp;&amp;nbsp;&amp;nbsp;&amp;nbsp;&amp;nbsp;&amp;nbsp;&amp;nbsp;&amp;nbsp;&amp;nbsp;-&amp;nbsp;&lt;/span&gt;&lt;span style=&quot;color: #569cd6&quot;&gt;name&lt;/span&gt;&lt;span style=&quot;color: #d4d4d4&quot;&gt;:&amp;nbsp;&lt;/span&gt;&lt;span style=&quot;color: #ce9178&quot;&gt;config&lt;/span&gt;&lt;/div&gt;&lt;div&gt;&lt;span style=&quot;color: #d4d4d4&quot;&gt;&amp;nbsp;&amp;nbsp;&amp;nbsp;&amp;nbsp;&amp;nbsp;&amp;nbsp;&amp;nbsp;&amp;nbsp;&amp;nbsp;&amp;nbsp;&amp;nbsp;&amp;nbsp;&amp;nbsp;&amp;nbsp;&lt;/span&gt;&lt;span style=&quot;color: #569cd6&quot;&gt;mountPath&lt;/span&gt;&lt;span style=&quot;color: #d4d4d4&quot;&gt;:&amp;nbsp;&lt;/span&gt;&lt;span style=&quot;color: #ce9178&quot;&gt;/config&lt;/span&gt;&lt;/div&gt;&lt;div&gt;&lt;span style=&quot;color: #d4d4d4&quot;&gt;&amp;nbsp;&amp;nbsp;&amp;nbsp;&amp;nbsp;&amp;nbsp;&amp;nbsp;&lt;/span&gt;&lt;span style=&quot;color: #569cd6&quot;&gt;volumes&lt;/span&gt;&lt;span style=&quot;color: #d4d4d4&quot;&gt;:&lt;/span&gt;&lt;/div&gt;&lt;div&gt;&lt;span style=&quot;color: #d4d4d4&quot;&gt;&amp;nbsp;&amp;nbsp;&amp;nbsp;&amp;nbsp;&amp;nbsp;&amp;nbsp;&amp;nbsp;&amp;nbsp;-&amp;nbsp;&lt;/span&gt;&lt;span style=&quot;color: #569cd6&quot;&gt;name&lt;/span&gt;&lt;span style=&quot;color: #d4d4d4&quot;&gt;:&amp;nbsp;&lt;/span&gt;&lt;span style=&quot;color: #ce9178&quot;&gt;config&lt;/span&gt;&lt;/div&gt;&lt;div&gt;&lt;span style=&quot;color: #d4d4d4&quot;&gt;&amp;nbsp;&amp;nbsp;&amp;nbsp;&amp;nbsp;&amp;nbsp;&amp;nbsp;&amp;nbsp;&amp;nbsp;&amp;nbsp;&amp;nbsp;&lt;/span&gt;&lt;span style=&quot;color: #569cd6&quot;&gt;hostPath&lt;/span&gt;&lt;span style=&quot;color: #d4d4d4&quot;&gt;:&lt;/span&gt;&lt;/div&gt;&lt;div&gt;&lt;span style=&quot;color: #d4d4d4&quot;&gt;&amp;nbsp;&amp;nbsp;&amp;nbsp;&amp;nbsp;&amp;nbsp;&amp;nbsp;&amp;nbsp;&amp;nbsp;&amp;nbsp;&amp;nbsp;&amp;nbsp;&amp;nbsp;&lt;/span&gt;&lt;span style=&quot;color: #569cd6&quot;&gt;path&lt;/span&gt;&lt;span style=&quot;color: #d4d4d4&quot;&gt;:&amp;nbsp;&lt;/span&gt;&lt;span style=&quot;color: #ce9178&quot;&gt;/home/docker&lt;/span&gt;&lt;/div&gt;&lt;div&gt;&lt;span style=&quot;color: #d4d4d4&quot;&gt;&amp;nbsp;&amp;nbsp;&amp;nbsp;&amp;nbsp;&amp;nbsp;&amp;nbsp;&amp;nbsp;&amp;nbsp;&amp;nbsp;&amp;nbsp;&amp;nbsp;&amp;nbsp;&lt;/span&gt;&lt;span style=&quot;color: #569cd6&quot;&gt;type&lt;/span&gt;&lt;span style=&quot;color: #d4d4d4&quot;&gt;:&amp;nbsp;&lt;/span&gt;&lt;span style=&quot;color: #ce9178&quot;&gt;Directory&lt;/span&gt;&lt;/div&gt;&lt;div&gt;&lt;span style=&quot;color: #d4d4d4&quot;&gt;---&lt;/span&gt;&lt;/div&gt;&lt;div&gt;&lt;span style=&quot;color: #569cd6&quot;&gt;apiVersion&lt;/span&gt;&lt;span style=&quot;color: #d4d4d4&quot;&gt;:&amp;nbsp;&lt;/span&gt;&lt;span style=&quot;color: #ce9178&quot;&gt;v1&lt;/span&gt;&lt;/div&gt;&lt;div&gt;&lt;span style=&quot;color: #569cd6&quot;&gt;kind&lt;/span&gt;&lt;span style=&quot;color: #d4d4d4&quot;&gt;:&amp;nbsp;&lt;/span&gt;&lt;span style=&quot;color: #ce9178&quot;&gt;Service&lt;/span&gt;&lt;/div&gt;&lt;div&gt;&lt;span style=&quot;color: #569cd6&quot;&gt;metadata&lt;/span&gt;&lt;span style=&quot;color: #d4d4d4&quot;&gt;:&lt;/span&gt;&lt;/div&gt;&lt;div&gt;&lt;span style=&quot;color: #d4d4d4&quot;&gt;&amp;nbsp;&amp;nbsp;&lt;/span&gt;&lt;span style=&quot;color: #569cd6&quot;&gt;name&lt;/span&gt;&lt;span style=&quot;color: #d4d4d4&quot;&gt;:&amp;nbsp;&lt;/span&gt;&lt;span style=&quot;color: #ce9178&quot;&gt;speedtest&lt;/span&gt;&lt;/div&gt;&lt;div&gt;&lt;span style=&quot;color: #569cd6&quot;&gt;spec&lt;/span&gt;&lt;span style=&quot;color: #d4d4d4&quot;&gt;:&lt;/span&gt;&lt;/div&gt;&lt;div&gt;&lt;span style=&quot;color: #d4d4d4&quot;&gt;&amp;nbsp;&amp;nbsp;&lt;/span&gt;&lt;span style=&quot;color: #569cd6&quot;&gt;type&lt;/span&gt;&lt;span style=&quot;color: #d4d4d4&quot;&gt;:&amp;nbsp;&lt;/span&gt;&lt;span style=&quot;color: #ce9178&quot;&gt;NodePort&lt;/span&gt;&lt;/div&gt;&lt;div&gt;&lt;span style=&quot;color: #d4d4d4&quot;&gt;&amp;nbsp;&amp;nbsp;&lt;/span&gt;&lt;span style=&quot;color: #569cd6&quot;&gt;ports&lt;/span&gt;&lt;span style=&quot;color: #d4d4d4&quot;&gt;:&lt;/span&gt;&lt;/div&gt;&lt;div&gt;&lt;span style=&quot;color: #d4d4d4&quot;&gt;&amp;nbsp;&amp;nbsp;&amp;nbsp;&amp;nbsp;-&amp;nbsp;&lt;/span&gt;&lt;span style=&quot;color: #569cd6&quot;&gt;name&lt;/span&gt;&lt;span style=&quot;color: #d4d4d4&quot;&gt;:&amp;nbsp;&lt;/span&gt;&lt;span style=&quot;color: #ce9178&quot;&gt;web&lt;/span&gt;&lt;/div&gt;&lt;div&gt;&lt;span style=&quot;color: #d4d4d4&quot;&gt;&amp;nbsp;&amp;nbsp;&amp;nbsp;&amp;nbsp;&amp;nbsp;&amp;nbsp;&lt;/span&gt;&lt;span style=&quot;color: #569cd6&quot;&gt;protocol&lt;/span&gt;&lt;span style=&quot;color: #d4d4d4&quot;&gt;:&amp;nbsp;&lt;/span&gt;&lt;span style=&quot;color: #ce9178&quot;&gt;TCP&lt;/span&gt;&lt;/div&gt;&lt;div&gt;&lt;span style=&quot;color: #d4d4d4&quot;&gt;&amp;nbsp;&amp;nbsp;&amp;nbsp;&amp;nbsp;&amp;nbsp;&amp;nbsp;&lt;/span&gt;&lt;span style=&quot;color: #569cd6&quot;&gt;port&lt;/span&gt;&lt;span style=&quot;color: #d4d4d4&quot;&gt;:&amp;nbsp;&lt;/span&gt;&lt;span style=&quot;color: #b5cea8&quot;&gt;3000&lt;/span&gt;&lt;/div&gt;&lt;div&gt;&lt;span style=&quot;color: #d4d4d4&quot;&gt;&amp;nbsp;&amp;nbsp;&amp;nbsp;&amp;nbsp;&amp;nbsp;&amp;nbsp;&lt;/span&gt;&lt;span style=&quot;color: #569cd6&quot;&gt;targetPort&lt;/span&gt;&lt;span style=&quot;color: #d4d4d4&quot;&gt;:&amp;nbsp;&lt;/span&gt;&lt;span style=&quot;color: #b5cea8&quot;&gt;80&lt;/span&gt;&lt;/div&gt;&lt;div&gt;&lt;span style=&quot;color: #d4d4d4&quot;&gt;&amp;nbsp;&amp;nbsp;&lt;/span&gt;&lt;span style=&quot;color: #569cd6&quot;&gt;selector&lt;/span&gt;&lt;span style=&quot;color: #d4d4d4&quot;&gt;:&lt;/span&gt;&lt;/div&gt;&lt;div&gt;&lt;span style=&quot;color: #d4d4d4&quot;&gt;&amp;nbsp;&amp;nbsp;&amp;nbsp;&amp;nbsp;&lt;/span&gt;&lt;span style=&quot;color: #569cd6&quot;&gt;app&lt;/span&gt;&lt;span style=&quot;color: #d4d4d4&quot;&gt;:&amp;nbsp;&lt;/span&gt;&lt;span style=&quot;color: #ce9178&quot;&gt;speedtest&lt;/span&gt;&lt;/div&gt;&lt;br&gt;&lt;/div&gt;" style="text;whiteSpace=wrap;html=1;fontSize=31;" parent="7rrcXuyhzCld1oj75WC8-26" vertex="1">
                    <mxGeometry width="430" height="1150" as="geometry"/>
                </mxCell>
                <mxCell id="7rrcXuyhzCld1oj75WC8-9" value="&lt;div style=&quot;font-size: 25px;&quot;&gt;&lt;font style=&quot;font-size: 25px;&quot;&gt;部署配置&lt;/font&gt;&lt;/div&gt;" style="rounded=0;whiteSpace=wrap;html=1;fontSize=25;strokeColor=#6c8ebf;fillOpacity=100;strokeOpacity=100;align=right;strokeWidth=5;perimeterSpacing=0;fillColor=#dae8fc;glass=0;opacity=50;sketch=0;shadow=0;verticalAlign=top;fontColor=#0000FF;labelBackgroundColor=none;labelBorderColor=none;" parent="7rrcXuyhzCld1oj75WC8-26" vertex="1">
                    <mxGeometry y="5" width="410" height="165" as="geometry"/>
                </mxCell>
                <mxCell id="7rrcXuyhzCld1oj75WC8-12" value="&lt;font style=&quot;font-size: 25px;&quot;&gt;容器配置&lt;/font&gt;" style="rounded=0;whiteSpace=wrap;html=1;fontSize=25;strokeColor=#82b366;fillOpacity=100;strokeOpacity=100;align=right;strokeWidth=5;perimeterSpacing=0;fillColor=#d5e8d4;glass=0;opacity=50;sketch=0;shadow=0;verticalAlign=top;fontColor=#0000FF;labelBackgroundColor=none;labelBorderColor=none;" parent="7rrcXuyhzCld1oj75WC8-26" vertex="1">
                    <mxGeometry y="170" width="410" height="350" as="geometry"/>
                </mxCell>
                <mxCell id="7rrcXuyhzCld1oj75WC8-13" value="设置文件共享" style="rounded=0;whiteSpace=wrap;html=1;fontSize=25;strokeColor=#82b366;fillOpacity=100;strokeOpacity=100;align=right;strokeWidth=5;perimeterSpacing=0;fillColor=#d5e8d4;glass=0;opacity=50;sketch=0;shadow=0;verticalAlign=top;fontColor=#0000FF;labelBackgroundColor=none;labelBorderColor=none;" parent="7rrcXuyhzCld1oj75WC8-26" vertex="1">
                    <mxGeometry y="600" width="410" height="140" as="geometry"/>
                </mxCell>
                <mxCell id="7rrcXuyhzCld1oj75WC8-14" value="使用文件共享" style="rounded=0;whiteSpace=wrap;html=1;fontSize=25;strokeColor=#82b366;fillOpacity=100;strokeOpacity=100;align=right;strokeWidth=5;perimeterSpacing=0;fillColor=#d5e8d4;glass=0;opacity=50;sketch=0;shadow=0;verticalAlign=top;fontColor=#0000FF;labelBackgroundColor=none;labelBorderColor=none;" parent="7rrcXuyhzCld1oj75WC8-26" vertex="1">
                    <mxGeometry y="520" width="410" height="80" as="geometry"/>
                </mxCell>
                <mxCell id="7rrcXuyhzCld1oj75WC8-18" value="服务配置" style="rounded=0;whiteSpace=wrap;html=1;fontSize=25;strokeColor=#d79b00;fillOpacity=100;strokeOpacity=100;align=right;strokeWidth=5;perimeterSpacing=0;fillColor=#ffe6cc;glass=0;opacity=50;sketch=0;shadow=0;verticalAlign=top;fontColor=#0000FF;labelBackgroundColor=none;labelBorderColor=none;" parent="7rrcXuyhzCld1oj75WC8-26" vertex="1">
                    <mxGeometry y="740" width="410" height="400" as="geometry"/>
                </mxCell>
            </root>
        </mxGraphModel>
    </diagram>
</mxfile>